<svg width="1440" height="311" viewBox="0 0 1440 311" fill="none" xmlns="http://www.w3.org/2000/svg">
<path fill-rule="evenodd" clip-rule="evenodd" d="M0 278.827L60 259.748C120 241.043 240 203.258 360 184.553C480 165.474 600 165.474 720 176.323C840 187.172 960 208.496 1080 214.107C1200 219.345 1320 208.496 1380 203.258L1440 198.021V311H1380C1320 311 1200 311 1080 311C960 311 840 311 720 311C600 311 480 311 360 311C240 311 120 311 60 311H0V278.827Z" fill="white"/>
<path fill-rule="evenodd" clip-rule="evenodd" d="M0 139.288L60 132.34C120 125.392 240 111 360 111C480 111 600 125.392 720 139.288C840 153.68 960 168.072 1080 171.546C1200 175.02 1320 168.072 1380 164.598L1440 161.124V311H1380C1320 311 1200 311 1080 311C960 311 840 311 720 311C600 311 480 311 360 311C240 311 120 311 60 311H0V139.288Z" fill="white" fill-opacity="0.5"/>
<path fill-rule="evenodd" clip-rule="evenodd" d="M0 109.92L60 133.122C120 154.777 240 199.633 360 188.805C480 177.978 600 109.92 720 88.2656C840 66.6108 960 88.2656 1080 99.0929C1200 109.92 1320 109.92 1380 109.92H1440V311H1380C1320 311 1200 311 1080 311C960 311 840 311 720 311C600 311 480 311 360 311C240 311 120 311 60 311H0V109.92Z" fill="#F9F9F9" fill-opacity="0.3"/>
<path fill-rule="evenodd" clip-rule="evenodd" d="M0 52.0733L60 37.0733C120 23.0733 240 -5.92666 360 1.07334C480 9.07334 600 52.0733 720 95.0733C840 138.073 960 181.073 1080 196.073C1200 210.073 1320 196.073 1380 189.073L1440 181.073V311.073H1380C1320 311.073 1200 311.073 1080 311.073C960 311.073 840 311.073 720 311.073C600 311.073 480 311.073 360 311.073C240 311.073 120 311.073 60 311.073H0V52.0733Z" fill="white" fill-opacity="0.1"/>
</svg>
